<svg width="20" height="20" viewBox="0 0 20 20" fill="none" xmlns="http://www.w3.org/2000/svg">
<path d="M7.50033 0.833252V2.49992H12.5003V0.833252H14.167V2.49992H17.5003C17.7213 2.49992 17.9333 2.58772 18.0896 2.744C18.2459 2.90028 18.3337 3.11224 18.3337 3.33325V16.6666C18.3337 16.8876 18.2459 17.0996 18.0896 17.2558C17.9333 17.4121 17.7213 17.4999 17.5003 17.4999H2.50033C2.27931 17.4999 2.06735 17.4121 1.91107 17.2558C1.75479 17.0996 1.66699 16.8876 1.66699 16.6666V3.33325C1.66699 3.11224 1.75479 2.90028 1.91107 2.744C2.06735 2.58772 2.27931 2.49992 2.50033 2.49992H5.83366V0.833252H7.50033ZM16.667 8.33325H3.33366V15.8333H16.667V8.33325ZM12.5303 9.27992L13.7087 10.4583L9.58366 14.5833L6.63699 11.6366L7.81699 10.4583L9.58449 12.2266L12.5312 9.27992H12.5303ZM5.83366 4.16659H3.33366V6.66658H16.667V4.16659H14.167V4.99992H12.5003V4.16659H7.50033V4.99992H5.83366V4.16659Z" fill="#1A1E22"/>
</svg>
