<svg width="24" height="24" viewBox="0 0 24 24" fill="none" xmlns="http://www.w3.org/2000/svg">
<path d="M9.9453 6.48603C9.9453 6.93963 9.9453 8.96427 9.9453 8.96427H8V11.9947H9.9453V21H13.9414V11.9949H16.6229C16.6229 11.9949 16.8741 10.5419 16.9958 8.9531C16.6468 8.9531 13.9565 8.9531 13.9565 8.9531C13.9565 8.9531 13.9565 7.1901 13.9565 6.88109C13.9565 6.5714 14.3922 6.15483 14.8228 6.15483C15.2526 6.15483 16.1598 6.15483 17 6.15483C17 5.74223 17 4.31663 17 3C15.8783 3 14.6022 3 14.0397 3C9.84652 2.99979 9.9453 6.03321 9.9453 6.48603Z" fill="white"/>
</svg>
