<svg width="18" height="18" viewBox="0 0 18 18" fill="none" xmlns="http://www.w3.org/2000/svg">
<path d="M7.00634 14.0865L5.55809 13.698L6.14834 11.4938C5.26481 11.1679 4.44367 10.693 3.72059 10.0898L2.10584 11.7053L1.04459 10.644L2.66009 9.02927C1.74814 7.93709 1.1354 6.62684 0.881836 5.22677L2.35784 4.95752C2.92709 8.10902 5.68409 10.5 8.99984 10.5C12.3148 10.5 15.0726 8.10902 15.6418 4.95752L17.1178 5.22602C16.8646 6.62628 16.2521 7.9368 15.3403 9.02927L16.9551 10.644L15.8938 11.7053L14.2791 10.0898C13.556 10.693 12.7349 11.1679 11.8513 11.4938L12.4416 13.6988L10.9933 14.0865L10.4023 11.8815C9.4741 12.0406 8.52557 12.0406 7.59734 11.8815L7.00634 14.0865Z" fill="#1A1E22"/>
</svg>
