<svg width="14" height="14" viewBox="0 0 14 14" fill="none" xmlns="http://www.w3.org/2000/svg">
<path d="M6.38173 13.2126C6.10173 13.2126 5.82756 13.1426 5.5709 13.0026C5.05756 12.7168 4.7484 12.1976 4.7484 11.6143V8.5226C4.7484 8.23093 4.5559 7.79343 4.37506 7.57176L2.1934 5.26177C1.8259 4.89427 1.5459 4.26427 1.5459 3.79176V2.4501C1.5459 1.51676 2.25173 0.787598 3.15006 0.787598H10.8501C11.7367 0.787598 12.4542 1.5051 12.4542 2.39176V3.6751C12.4542 4.2876 12.0867 4.98177 11.7426 5.32593L9.21673 7.5601C8.97173 7.76427 8.77923 8.21343 8.77923 8.5751V11.0834C8.77923 11.6026 8.45256 12.2034 8.04423 12.4484L7.23923 12.9676C6.97673 13.1309 6.67923 13.2126 6.38173 13.2126ZM3.15006 1.6626C2.74173 1.6626 2.4209 2.00676 2.4209 2.4501V3.79176C2.4209 4.0076 2.5959 4.4276 2.81756 4.64926L5.04006 6.98843C5.33756 7.35593 5.62923 7.96843 5.62923 8.51677V11.6084C5.62923 11.9876 5.89173 12.1743 6.00256 12.2326C6.24756 12.3668 6.54506 12.3668 6.77256 12.2268L7.5834 11.7076C7.74673 11.6084 7.91006 11.2934 7.91006 11.0834V8.5751C7.91006 7.95093 8.2134 7.2626 8.6509 6.8951L11.1476 4.68426C11.3459 4.48593 11.5851 4.01343 11.5851 3.66926V2.39176C11.5851 1.98926 11.2584 1.6626 10.8559 1.6626H3.15006V1.6626Z" fill="#1A1E22"/>
</svg>
