<svg width="20" height="20" viewBox="0 0 20 20" fill="none" xmlns="http://www.w3.org/2000/svg">
<path d="M14.0419 0H5.95811C2.67279 0 0 2.67279 0 5.95811V14.0419C0 17.3272 2.67279 20 5.95811 20H14.0419C17.3272 20 20 17.3272 20 14.0419V5.95811C20 2.67279 17.3272 0 14.0419 0ZM17.988 14.0419C17.988 16.2212 16.2212 17.988 14.0419 17.988H5.95811C3.77875 17.988 2.012 16.2212 2.012 14.0419V5.95811C2.012 3.77871 3.77875 2.012 5.95811 2.012H14.0419C16.2212 2.012 17.988 3.77871 17.988 5.95811V14.0419Z" fill="white"/>
<path d="M9.99962 4.82745C7.14738 4.82745 4.8269 7.14793 4.8269 10.0001C4.8269 12.8523 7.14738 15.1728 9.99962 15.1728C12.8519 15.1728 15.1723 12.8524 15.1723 10.0001C15.1723 7.14789 12.8519 4.82745 9.99962 4.82745ZM9.99962 13.1609C8.25399 13.1609 6.8389 11.7458 6.8389 10.0002C6.8389 8.25454 8.25402 6.83945 9.99962 6.83945C11.7452 6.83945 13.1603 8.25454 13.1603 10.0002C13.1603 11.7458 11.7452 13.1609 9.99962 13.1609Z" fill="white"/>
<path d="M15.1824 6.10575C15.8669 6.10575 16.4218 5.55081 16.4218 4.86626C16.4218 4.18171 15.8669 3.62677 15.1824 3.62677C14.4978 3.62677 13.9429 4.18171 13.9429 4.86626C13.9429 5.55081 14.4978 6.10575 15.1824 6.10575Z" fill="white"/>
</svg>
