<svg width="63" height="21" viewBox="0 0 63 21" fill="none" xmlns="http://www.w3.org/2000/svg">
<g opacity="0.5">
<path d="M34.6974 10.5H37.0467L33.7946 14.4471L37.6622 18.9006H35.0359L31.5479 14.8294V18.9006H29.4448V10.5H31.5479V14.3748L34.6974 10.5Z" fill="white"/>
<path d="M43.2629 18.9006H41.0864L44.7554 10.5H46.9733L50.6734 18.9006H48.5073L45.8747 12.564L45.0456 14.5764L43.2629 18.9006Z" fill="white"/>
<path d="M61.0178 10.5H62.9986V18.9006H61.2139L56.7522 13.6825V18.9006H54.7812V10.5H56.5365L61.0178 15.7387V10.5Z" fill="white"/>
<path d="M16.5625 21H15.7348H6.47951H5.93607H0L11.1615 0L22.3815 21H16.5625ZM8.76197 16.094H13.4523L11.1113 11.0427L8.76197 16.094Z" fill="white"/>
<path d="M33.7293 6.00001L33.7228 3.28616L32.3917 5.52185H31.9201L30.5954 3.34431V6.00001H29.6133V1.47693H30.4791L32.1721 4.2877L33.8391 1.47693H34.6985L34.7114 6.00001H33.7293Z" fill="white"/>
<path d="M39.0864 5.03078H36.9864L36.5858 6.00001H35.5132L37.5292 1.47693H38.563L40.5855 6.00001H39.487L39.0864 5.03078ZM38.7569 4.23601L38.0396 2.50431L37.3224 4.23601H38.7569Z" fill="white"/>
<path d="M41.3778 1.47693H43.4326C43.9237 1.47693 44.3566 1.5717 44.7314 1.76124C45.1104 1.94647 45.4034 2.20924 45.6101 2.54954C45.8212 2.88985 45.9267 3.28616 45.9267 3.73847C45.9267 4.19077 45.8212 4.58708 45.6101 4.92739C45.4034 5.2677 45.1104 5.53262 44.7314 5.72216C44.3566 5.90739 43.9237 6.00001 43.4326 6.00001H41.3778V1.47693ZM43.3809 5.14062C43.8332 5.14062 44.1929 5.0157 44.46 4.76585C44.7314 4.5117 44.8671 4.16924 44.8671 3.73847C44.8671 3.3077 44.7314 2.96739 44.46 2.71754C44.1929 2.46339 43.8332 2.33631 43.3809 2.33631H42.4246V5.14062H43.3809Z" fill="white"/>
<path d="M50.5414 5.16001V6.00001H47.0392V1.47693H50.4574V2.31693H48.0795V3.29908H50.1795V4.11324H48.0795V5.16001H50.5414Z" fill="white"/>
<path d="M57.1716 3.64801C57.4301 3.72985 57.6325 3.8677 57.779 4.06154C57.9254 4.25108 57.9987 4.48585 57.9987 4.76585C57.9987 5.16216 57.8436 5.46801 57.5334 5.68339C57.2276 5.89447 56.7796 6.00001 56.1894 6.00001H53.8504V1.47693H56.0602C56.6116 1.47693 57.0337 1.58247 57.3267 1.79354C57.6239 2.00462 57.7725 2.29108 57.7725 2.65293C57.7725 2.87262 57.7187 3.06862 57.611 3.24093C57.5076 3.41324 57.3611 3.54893 57.1716 3.64801ZM54.8907 2.26524V3.33139H55.931C56.1894 3.33139 56.3854 3.28616 56.519 3.1957C56.6525 3.10524 56.7193 2.9717 56.7193 2.79508C56.7193 2.61847 56.6525 2.48708 56.519 2.40093C56.3854 2.31047 56.1894 2.26524 55.931 2.26524H54.8907ZM56.1119 5.2117C56.3876 5.2117 56.5944 5.16647 56.7322 5.07601C56.8744 4.98554 56.9454 4.84554 56.9454 4.65601C56.9454 4.28124 56.6676 4.09385 56.1119 4.09385H54.8907V5.2117H56.1119Z" fill="white"/>
<path d="M61.1907 4.39754V6.00001H60.1439V4.38462L58.3928 1.47693H59.5042L60.7125 3.48647L61.9208 1.47693H62.9482L61.1907 4.39754Z" fill="white"/>
</g>
</svg>
