<svg width="20" height="20" viewBox="0 0 20 20" fill="none" xmlns="http://www.w3.org/2000/svg">
<path d="M10 16.889L14.125 12.9022C14.9407 12.1137 15.4963 11.1091 15.7213 10.0155C15.9463 8.92189 15.8308 7.78832 15.3892 6.75816C14.9477 5.728 14.2 4.84752 13.2408 4.22804C12.2815 3.60857 11.1537 3.27792 10 3.27792C8.8463 3.27792 7.71851 3.60857 6.75924 4.22804C5.79996 4.84752 5.05229 5.728 4.61076 6.75816C4.16923 7.78832 4.05368 8.92189 4.27871 10.0155C4.50374 11.1091 5.05926 12.1137 5.875 12.9022L10 16.889ZM10 19.1667L4.69667 14.0411C3.64779 13.0273 2.93349 11.7357 2.64411 10.3296C2.35473 8.9235 2.50326 7.46602 3.07092 6.14149C3.63858 4.81696 4.59987 3.68487 5.83323 2.88837C7.0666 2.09188 8.51664 1.66675 10 1.66675C11.4834 1.66675 12.9334 2.09188 14.1668 2.88837C15.4001 3.68487 16.3614 4.81696 16.9291 6.14149C17.4967 7.46602 17.6453 8.9235 17.3559 10.3296C17.0665 11.7357 16.3522 13.0273 15.3033 14.0411L10 19.1667ZM10 10.5263C10.442 10.5263 10.8659 10.3565 11.1785 10.0545C11.4911 9.75236 11.6667 9.34264 11.6667 8.91542C11.6667 8.4882 11.4911 8.07848 11.1785 7.77639C10.8659 7.4743 10.442 7.30459 10 7.30459C9.55797 7.30459 9.13405 7.4743 8.82149 7.77639C8.50893 8.07848 8.33333 8.4882 8.33333 8.91542C8.33333 9.34264 8.50893 9.75236 8.82149 10.0545C9.13405 10.3565 9.55797 10.5263 10 10.5263ZM10 12.1371C9.11595 12.1371 8.2681 11.7977 7.64298 11.1935C7.01786 10.5893 6.66667 9.76986 6.66667 8.91542C6.66667 8.06099 7.01786 7.24154 7.64298 6.63736C8.2681 6.03319 9.11595 5.69376 10 5.69376C10.8841 5.69376 11.7319 6.03319 12.357 6.63736C12.9821 7.24154 13.3333 8.06099 13.3333 8.91542C13.3333 9.76986 12.9821 10.5893 12.357 11.1935C11.7319 11.7977 10.8841 12.1371 10 12.1371Z" fill="#1A1E22"/>
</svg>
