<svg width="20" height="20" viewBox="0 0 20 20" fill="none" xmlns="http://www.w3.org/2000/svg">
<path fill-rule="evenodd" clip-rule="evenodd" d="M4.82782 4.82782C4.27062 5.38502 3.82863 6.04651 3.52707 6.77453C3.22552 7.50254 3.07031 8.28282 3.07031 9.07082C3.07031 9.85882 3.22552 10.6391 3.52707 11.3671C3.82863 12.0951 4.27062 12.7566 4.82782 13.3138C5.38502 13.871 6.04651 14.313 6.77453 14.6146C7.50254 14.9161 8.28282 15.0713 9.07082 15.0713C9.85882 15.0713 10.6391 14.9161 11.3671 14.6146C12.0951 14.313 12.7566 13.871 13.3138 13.3138C14.4391 12.1885 15.0713 10.6623 15.0713 9.07082C15.0713 7.47939 14.4391 5.95313 13.3138 4.82782C12.1885 3.70251 10.6623 3.07031 9.07082 3.07031C7.47939 3.07031 5.95313 3.70251 4.82782 4.82782V4.82782ZM11.8998 11.8998C11.5308 12.2819 11.0895 12.5866 10.6014 12.7962C10.1134 13.0059 9.58854 13.1162 9.05743 13.1208C8.52631 13.1254 7.99959 13.0242 7.508 12.8231C7.01642 12.622 6.56981 12.325 6.19424 11.9494C5.81867 11.5738 5.52166 11.1272 5.32053 10.6356C5.11941 10.1441 5.0182 9.61733 5.02282 9.08622C5.02743 8.5551 5.13778 8.03022 5.34741 7.5422C5.55705 7.05419 5.86178 6.61281 6.24382 6.24382C6.99823 5.51519 8.00864 5.11201 9.05743 5.12112C10.1062 5.13024 11.1095 5.55091 11.8511 6.29255C12.5927 7.03418 13.0134 8.03743 13.0225 9.08622C13.0316 10.135 12.6285 11.1454 11.8998 11.8998Z" fill="black"/>
<path d="M11.9 14.7281C11.6316 14.4444 11.4843 14.0671 11.4897 13.6765C11.495 13.286 11.6525 12.9129 11.9286 12.6366C12.2048 12.3604 12.5778 12.2027 12.9683 12.1972C13.3589 12.1917 13.7362 12.3387 14.02 12.6071L17.556 16.1421C17.7017 16.2798 17.8183 16.4453 17.8989 16.6289C17.9796 16.8125 18.0225 17.0104 18.0254 17.2108C18.0282 17.4113 17.9908 17.6103 17.9154 17.7961C17.8401 17.9819 17.7282 18.1507 17.5864 18.2925C17.4447 18.4343 17.276 18.5462 17.0902 18.6217C16.9045 18.6972 16.7055 18.7346 16.505 18.7319C16.3046 18.7292 16.1067 18.6863 15.9231 18.6057C15.7394 18.5252 15.5738 18.4087 15.436 18.2631L11.899 14.7281H11.9ZM7.20703 10.1641C6.94181 10.1641 6.68746 10.0587 6.49992 9.87117C6.31239 9.68363 6.20703 9.42928 6.20703 9.16406C6.20703 8.89885 6.31239 8.64449 6.49992 8.45696C6.68746 8.26942 6.94181 8.16406 7.20703 8.16406H11.207C11.4722 8.16406 11.7266 8.26942 11.9141 8.45696C12.1017 8.64449 12.207 8.89885 12.207 9.16406C12.207 9.42928 12.1017 9.68363 11.9141 9.87117C11.7266 10.0587 11.4722 10.1641 11.207 10.1641H7.20703Z" fill="black"/>
<path d="M8.20703 7.16406C8.20703 6.89885 8.31239 6.64449 8.49992 6.45696C8.68746 6.26942 8.94181 6.16406 9.20703 6.16406C9.47225 6.16406 9.7266 6.26942 9.91414 6.45696C10.1017 6.64449 10.207 6.89885 10.207 7.16406V11.1641C10.207 11.4293 10.1017 11.6836 9.91414 11.8712C9.7266 12.0587 9.47225 12.1641 9.20703 12.1641C8.94181 12.1641 8.68746 12.0587 8.49992 11.8712C8.31239 11.6836 8.20703 11.4293 8.20703 11.1641V7.16406Z" fill="black"/>
</svg>
