<svg width="24" height="24" viewBox="0 0 24 24" fill="none" xmlns="http://www.w3.org/2000/svg">
<path d="M19.2128 13.1609C19.8762 13.8055 20.5764 14.4118 21.1715 15.1213C21.4343 15.4366 21.6831 15.762 21.8735 16.1279C22.1433 16.648 21.899 17.2204 21.4303 17.2515L18.5166 17.2501C17.7651 17.3122 17.1656 17.0112 16.6616 16.4999C16.2582 16.091 15.8846 15.6559 15.4967 15.2332C15.3377 15.0605 15.1712 14.898 14.9724 14.7695C14.5746 14.5126 14.2294 14.5912 14.0021 15.004C13.7706 15.4239 13.718 15.8887 13.6953 16.3566C13.6641 17.0393 13.4567 17.2188 12.7675 17.2501C11.2947 17.3192 9.89689 17.0975 8.59833 16.3581C7.45349 15.7064 6.56576 14.7862 5.79303 13.7446C4.28862 11.7163 3.13647 9.4875 2.10101 7.19626C1.86792 6.68005 2.03839 6.40295 2.61081 6.39312C3.56132 6.37473 4.5117 6.37606 5.46334 6.3918C5.84967 6.39743 6.10541 6.6179 6.25459 6.98105C6.76885 8.23927 7.3981 9.43635 8.18794 10.5459C8.3983 10.8413 8.61279 11.1368 8.91818 11.3447C9.25607 11.5749 9.51333 11.4986 9.67228 11.1241C9.77314 10.8866 9.81732 10.6308 9.84005 10.3765C9.91536 9.50142 9.92528 8.62784 9.79321 7.75586C9.71212 7.21166 9.40407 6.85935 8.85833 6.75639C8.57986 6.70387 8.6213 6.60076 8.75615 6.4426C8.99033 6.16982 9.2106 6 9.6497 6H12.9426C13.461 6.1018 13.5761 6.33353 13.6471 6.85255L13.6499 10.4921C13.6442 10.693 13.7507 11.2893 14.1145 11.4223C14.4055 11.517 14.5974 11.2852 14.7721 11.1016C15.5605 10.269 16.1232 9.28496 16.6259 8.26605C16.849 7.81801 17.0408 7.35275 17.2267 6.88784C17.3644 6.54288 17.5806 6.37314 17.9711 6.38064L21.1403 6.38344C21.2343 6.38344 21.3294 6.3848 21.4204 6.40031C21.9544 6.49087 22.1008 6.71946 21.9358 7.23836C21.6759 8.05247 21.1703 8.73092 20.6758 9.41248C20.1473 10.1401 19.5821 10.8429 19.058 11.5749C18.5764 12.2435 18.6146 12.5804 19.2128 13.1609Z" fill="white"/>
</svg>
