<svg width="14" height="17" viewBox="0 0 14 17" fill="none" xmlns="http://www.w3.org/2000/svg">
<path d="M102.367 0.329833H101.177L93.6711 17.3997H96.9143L98.2612 14.2445H105.336L106.657 17.3997H110.044L102.367 0.329833ZM104.277 11.4457H99.3727L101.792 6.11222L104.277 11.4457ZM127.88 11.908C129.855 10.8519 130.967 8.96401 130.967 6.6141C130.967 2.65356 128.063 0.198028 123.382 0.198028H118.949V17.0963H122.087V12.9906H123.382C123.866 12.9906 124.376 12.9642 124.846 12.8981L128.011 17.0963H131.83L127.88 11.908ZM122.087 3.03641H123.277C126.246 3.03641 127.763 4.23778 127.763 6.6141C127.763 9.00362 126.298 10.1654 123.277 10.1654H122.087V3.03641ZM136.302 0.184827V17.0831H133.137V0.184827H136.302ZM168.524 14.2447V17.0831H155.054V15.9214L163.738 3.02321H156.375V0.171625H168.485V1.33338L159.815 14.2447H168.524ZM200.994 0.184827V17.2547H199.713L189.761 6.28405V17.0963H186.714V0.0264053H187.996L198.091 11.0103V0.184827H200.994ZM212.424 0.0132027C207.441 0.0132027 203.688 3.72291 203.688 8.64717C203.688 13.5714 207.441 17.2811 212.424 17.2811C217.419 17.2811 221.172 13.5714 221.172 8.64717C221.185 3.72291 217.419 0.0132027 212.424 0.0132027ZM212.424 14.4031C209.154 14.4031 206.8 11.9872 206.8 8.64717C206.8 5.30712 209.167 2.87799 212.424 2.87799C215.693 2.87799 218.073 5.29392 218.073 8.64717C218.086 11.9872 215.706 14.4031 212.424 14.4031ZM237.479 0.184827L231.83 12.951L230.274 9.5845L234.184 0.171625H237.479V0.184827ZM230.902 15.0896L229.947 17.2547H228.77L221.12 0.184827H224.546L230.902 15.0896ZM22.898 0.197815H21.721L14.2148 17.2677H17.4579L18.8048 14.1125H25.8795L27.2003 17.2677H30.5873L22.898 0.197815ZM24.8072 11.3005L19.9033 11.3137L22.3357 5.9802L24.8072 11.3005ZM42.7228 0.356237V3.20782H37.6097V17.2677H34.4712V3.20782H29.3581V0.356237H42.7228ZM56.4145 14.4161V17.2677H44.5667V0.356237H56.0745V3.20782H47.7052V7.74924H55.1722V10.5744H47.7052V14.4161H56.4145ZM67.177 12.0794C69.1516 11.0233 70.2632 9.13542 70.2632 6.78551C70.2632 2.82497 67.347 0.356237 62.6654 0.356237H58.2322V17.2677H61.3707V13.162H62.6654C63.1623 13.162 63.6592 13.1224 64.13 13.0696L67.2947 17.2677H71.1132L67.177 12.0794ZM61.3838 3.20782H62.5869C65.5554 3.20782 67.0593 4.40918 67.0593 6.78551C67.0593 9.17503 65.5946 10.3368 62.5869 10.3368H61.3838V3.20782ZM75.9125 0.356237V17.2677H72.7478V0.356237H75.9125ZM92.285 0.356237V17.4261H91.0034L81.0518 6.44226V17.2677H78.0048V0.197815H79.2864L89.2642 11.1949V0.356237H92.285ZM13.9271 17.2677H9.93858L4.49852 10.8649L0 16.4624V0.356237H3.1385V7.92086L9.46781 0.356237H13.234L6.49931 8.52814L13.9271 17.2677ZM146.149 0.0528086H144.972L137.466 17.1227H140.709L142.056 13.9807L149.131 13.9675L150.451 17.1227H153.838L146.149 0.0528086ZM148.045 11.1555H143.141L145.574 5.82199L148.045 11.1555ZM178.423 0H177.246L169.727 17.0699H172.983L174.33 13.9147H181.405L182.726 17.0699H186.099L178.423 0ZM180.332 11.1159H175.429L177.848 5.78239L180.332 11.1159ZM241.324 0.184827H240.147L232.641 17.2547H235.884L237.231 14.1127L244.292 14.0995L245.613 17.2547H249L241.324 0.184827ZM243.233 11.3007H238.329L240.749 5.96721L243.233 11.3007Z" fill="#0B2949"/>
</svg>
