<svg width="152" height="60" viewBox="0 0 152 60" fill="none" xmlns="http://www.w3.org/2000/svg">
<path d="M114.979 0.125523H113.589L105.124 18.954H108.788L110.304 15.4393H118.264L119.781 18.954H123.571L114.979 0.125523ZM117.127 12.4268H111.568L114.347 6.5272L117.127 12.4268ZM16.0465 35.523C18.3209 34.3933 19.458 32.2594 19.458 29.6234C19.458 25.2301 16.1729 22.4686 10.9925 22.4686H6.06484V41.1716H9.60266V36.6527H10.9925C11.4979 36.6527 12.1297 36.6527 12.6351 36.5272L16.1729 41.1716H20.4688L16.0465 35.523ZM9.60266 25.7322H10.9925C14.2776 25.7322 16.0465 27.113 16.0465 29.6234C16.0465 32.2594 14.404 33.5146 10.9925 33.5146H9.60266V25.7322ZM25.5229 22.5941V41.2971H21.985V22.5941H25.5229ZM61.6592 38.0335V41.1716H46.4971V39.9163L56.2261 25.6067H48.0133V22.5941H61.5328V23.8494L51.8038 38.159H61.6592V38.0335ZM98.1746 22.5941V41.4226H96.7847L85.6658 29.2469V41.1716H82.128V22.3431H83.5179L94.8894 34.5188V22.5941H98.1746ZM110.936 22.3431C105.377 22.3431 101.081 26.4854 101.081 31.8828C101.081 37.2803 105.25 41.4226 110.936 41.4226C116.495 41.4226 120.791 37.2803 120.791 31.8828C120.791 26.4854 116.622 22.3431 110.936 22.3431ZM110.936 38.2845C107.272 38.2845 104.618 35.6485 104.618 31.8828C104.618 28.2427 107.272 25.4812 110.936 25.4812C114.6 25.4812 117.254 28.1172 117.254 31.8828C117.38 35.523 114.727 38.2845 110.936 38.2845ZM139.112 22.5941L132.795 36.6527L131.026 32.887L135.448 22.4686H139.112V22.5941ZM131.784 39.0377L130.647 41.4226H129.257L120.665 22.5941H124.456L131.784 39.0377ZM25.6492 0H24.2594L15.7938 18.8285H19.458L20.9742 15.3138H28.9343L30.4505 18.8285H34.2411L25.6492 0ZM27.7972 12.3013H22.2377L25.0175 6.40167L27.7972 12.3013ZM48.0133 0.125523V3.2636H42.3275V18.8285H38.7897V3.2636H33.1039V0.125523H48.0133ZM63.3017 15.6904V18.8285H50.0349V0.125523H62.9227V3.2636H53.5727V8.28452H61.9119V11.4226H53.5727V15.6904H63.3017ZM75.4314 13.1799C77.7057 12.0502 78.8429 9.91632 78.8429 7.28034C78.8429 2.88703 75.5578 0.125523 70.3774 0.125523H65.4497V18.8285H68.9875V14.3096H70.3774C70.8828 14.3096 71.5145 14.3096 72.0199 14.1841L75.5578 18.8285H79.8537L75.4314 13.1799ZM68.8612 3.2636H70.251C73.5362 3.2636 75.3051 4.64435 75.3051 7.15481C75.3051 9.7908 73.6625 11.046 70.251 11.046H68.8612V3.2636ZM85.2868 0.125523V18.8285H81.749V0.125523H85.2868ZM103.608 0.125523V18.954H102.218L90.9726 6.90377V18.8285H87.5611V0H88.951L100.196 12.1757V0.125523H103.608ZM15.6675 18.8285H11.1189L5.05403 11.7992L0 17.9498V0.125523H3.53782V8.53557L10.6135 0.125523H14.783L7.20199 9.16318L15.6675 18.8285ZM36.6417 22.3431H35.2519L26.7864 41.1716H30.4505L31.9667 37.6569H39.9268L41.4431 41.1716H45.2336L36.6417 22.3431ZM38.6633 34.6444H33.1039L35.8836 28.7448L38.6633 34.6444ZM72.7781 22.3431H71.3882L62.9227 41.1716H66.5869L68.1031 37.6569H76.0632L77.5794 41.1716H81.3699L72.7781 22.3431ZM74.926 34.6444H69.3666L72.1463 28.7448L74.926 34.6444ZM143.408 22.5941H142.018L133.553 41.4226H137.217L138.733 37.908H146.693L148.209 41.4226H152L143.408 22.5941ZM145.556 34.7699H139.997L142.776 28.8703L145.556 34.7699ZM0.631754 52.8452C0.884456 52.3431 1.26351 51.9665 1.76891 51.7155C2.27431 51.4644 2.77972 51.3389 3.28512 51.3389C3.66417 51.3389 4.04323 51.4644 4.29593 51.59C4.54863 51.7155 4.80133 51.9665 4.92768 52.3431C5.05403 52.5941 5.18038 52.9707 5.18038 53.3473C5.18038 53.7239 5.18038 54.1004 5.18038 54.477C5.18038 54.8536 5.05403 55.2301 4.80133 55.6067C4.67498 55.9833 4.42228 56.2343 4.16958 56.6109C3.91687 56.8619 3.66417 57.113 3.28512 57.2385C2.90607 57.364 2.65337 57.4895 2.27431 57.4895C1.76891 57.4895 1.26351 57.364 0.884456 57.113C0.505403 56.8619 0.252702 56.4854 0.126351 55.9833C0 55.3556 0 54.8536 0 54.3515C0.126351 53.7239 0.379052 53.2218 0.631754 52.8452ZM0.758105 55.4812C0.884456 55.8577 1.01081 56.1088 1.38986 56.3598C1.64256 56.6109 2.02161 56.7364 2.40066 56.7364C2.65337 56.7364 3.03242 56.6109 3.28512 56.4854C3.53782 56.3598 3.79052 56.2343 4.04323 55.9833C4.29593 55.7322 4.42228 55.4812 4.54863 55.2301C4.67498 54.9791 4.80133 54.6025 4.80133 54.3515C4.80133 54.1004 4.80133 53.7239 4.80133 53.4728C4.80133 53.2218 4.67498 52.9707 4.54863 52.7197C4.42228 52.4686 4.29593 52.3431 4.04323 52.2176C3.79052 52.0921 3.53782 51.9665 3.28512 51.9665C2.90607 51.9665 2.40067 52.0921 2.02161 52.3431C1.64256 52.5941 1.38986 52.8452 1.13716 53.2218C0.884455 53.5983 0.758105 53.9749 0.631754 54.477C0.631754 54.728 0.631754 55.1046 0.758105 55.4812ZM6.69659 47.4477L5.05403 57.2385H4.42228L6.06484 47.4477H6.69659ZM8.7182 51.4644L7.7074 57.2385H7.07564L8.08645 51.4644H8.7182ZM8.4655 48.4519C8.59185 48.3264 8.7182 48.3264 8.84455 48.3264C8.97091 48.3264 9.09726 48.3264 9.22361 48.4519C9.34996 48.5774 9.34996 48.7029 9.34996 48.8285C9.34996 48.954 9.34996 49.0795 9.22361 49.205C9.09726 49.3305 8.97091 49.3305 8.84455 49.3305C8.7182 49.3305 8.59185 49.3305 8.4655 49.205C8.33915 49.0795 8.33915 48.954 8.33915 48.8285C8.33915 48.7029 8.33915 48.5774 8.4655 48.4519ZM10.6135 51.4644L11.7506 56.1088L14.404 51.4644H15.1621L11.6243 57.6151L9.85536 51.4644H10.6135ZM16.0465 56.9875C15.6675 56.7364 15.4148 56.4854 15.2884 56.1088C15.0357 55.7322 15.0357 55.2301 15.0357 54.728C15.0357 54.2259 15.1621 53.8494 15.2884 53.4728C15.4148 53.0962 15.6675 52.7197 15.9202 52.3431C16.1729 51.9665 16.552 51.7155 16.931 51.59C17.3101 51.3389 17.6891 51.3389 18.1945 51.3389C18.6999 51.3389 19.079 51.4644 19.3317 51.59C19.7107 51.841 19.9634 52.0921 20.0898 52.4686C20.3425 52.8452 20.3425 53.2218 20.3425 53.7239C20.3425 53.8494 20.3425 53.9749 20.3425 54.1004C20.3425 54.2259 20.3425 54.3515 20.2161 54.477H15.2884V53.9749H19.7107L19.458 54.3515C19.458 54.2259 19.5844 54.2259 19.5844 54.1004C19.5844 53.9749 19.5844 53.8494 19.5844 53.7239C19.5844 53.3473 19.458 53.0962 19.3317 52.8452C19.2053 52.5941 18.9526 52.3431 18.8263 52.2176C18.5736 52.0921 18.3209 51.9665 17.9418 51.9665C17.5628 51.9665 17.3101 52.0921 16.931 52.2176C16.6783 52.3431 16.2993 52.5941 16.1729 52.8452C15.9202 53.0962 15.7938 53.3473 15.6675 53.7239C15.5411 54.1004 15.4148 54.3515 15.4148 54.728C15.4148 55.1046 15.5411 55.4812 15.6675 55.8577C15.7938 56.1088 16.0465 56.3598 16.2993 56.6109C16.552 56.7364 16.931 56.8619 17.3101 56.8619C17.8155 56.8619 18.1945 56.7364 18.5736 56.4854C18.9526 56.2343 19.2053 55.9833 19.458 55.6067L19.9634 55.9833C19.5844 56.4854 19.2053 56.7364 18.8263 57.113C18.3209 57.364 17.8155 57.4895 17.3101 57.4895C16.8047 57.364 16.2993 57.2385 16.0465 56.9875ZM26.7864 51.4644L25.7756 57.2385H25.1438L26.1546 51.4644H26.7864ZM26.66 48.4519C26.7864 48.3264 26.9127 48.3264 27.0391 48.3264C27.1654 48.3264 27.2918 48.3264 27.4181 48.4519C27.5445 48.5774 27.5445 48.7029 27.5445 48.8285C27.5445 48.954 27.5445 49.0795 27.4181 49.205C27.2918 49.3305 27.1654 49.3305 27.0391 49.3305C26.9127 49.3305 26.7864 49.3305 26.66 49.205C26.5337 49.0795 26.5337 48.954 26.5337 48.8285C26.5337 48.7029 26.5337 48.5774 26.66 48.4519ZM32.2195 52.7197C32.2195 52.4686 32.0931 52.3431 31.9667 52.0921C31.8404 51.9665 31.5877 51.841 31.2086 51.841C30.8296 51.841 30.5769 51.9665 30.3242 52.0921C30.0715 52.2176 29.8188 52.4686 29.6924 52.7197C29.5661 52.9707 29.4397 53.2218 29.3134 53.5983L28.6816 57.2385H28.0499L29.0607 51.4644H29.6924L29.4397 52.5941C29.6924 52.2176 29.9451 51.9665 30.1978 51.7155C30.5769 51.4644 30.9559 51.3389 31.335 51.3389C31.714 51.3389 32.0931 51.4644 32.3458 51.59C32.5985 51.841 32.7249 52.0921 32.8512 52.3431C32.9776 52.7197 32.9776 52.9707 32.8512 53.3473L32.2195 57.113H31.5877L32.2195 53.3473C32.2195 53.2218 32.2195 52.9707 32.2195 52.7197ZM36.01 56.2343L34.1147 59.3724L33.6093 59.2469L35.3782 55.9833L36.01 56.2343ZM41.6958 60H40.9377L42.9593 56.6109L41.6958 51.4644H42.4539L43.7174 56.3598H43.4647L46.3707 51.4644H47.1288L41.6958 60ZM47.3815 52.8452C47.7606 52.3431 48.1397 51.9665 48.5187 51.7155C49.0241 51.4644 49.5295 51.3389 50.0349 51.3389C50.5403 51.3389 51.0457 51.4644 51.4248 51.7155C51.8038 51.9665 52.0565 52.3431 52.3092 52.8452C52.4356 53.3473 52.5619 53.8494 52.4356 54.3515C52.3092 54.8536 52.1829 55.3557 51.8038 55.8577C51.4248 56.3598 51.0457 56.7364 50.6667 56.9875C50.1613 57.2385 49.6559 57.364 49.1505 57.364C48.6451 57.364 48.1396 57.2385 47.7606 56.9875C47.3815 56.7364 47.1288 56.3598 46.8761 55.8577C46.7498 55.3557 46.7498 54.8536 46.7498 54.3515C46.8761 53.7239 47.1288 53.2218 47.3815 52.8452ZM47.5079 55.4812C47.6342 55.8577 47.8869 56.1088 48.1396 56.3598C48.3923 56.6109 48.7714 56.7364 49.2768 56.7364C49.7822 56.7364 50.1613 56.6109 50.5403 56.3598C50.9194 56.1088 51.1721 55.8577 51.4248 55.4812C51.6775 55.1046 51.8038 54.728 51.9302 54.2259C51.9302 53.8494 51.9302 53.4728 51.8038 53.0962C51.6775 52.7197 51.4248 52.4686 51.1721 52.2176C50.9194 51.9665 50.5403 51.841 50.0349 51.841C49.6559 51.841 49.1505 51.9665 48.7714 52.2176C48.3923 52.4686 48.0133 52.7197 47.8869 53.0962C47.6342 53.4728 47.5079 53.8494 47.3815 54.3515C47.3815 54.728 47.3815 55.1046 47.5079 55.4812ZM54.4572 55.8577C54.4572 56.1088 54.5835 56.3598 54.7099 56.4854C54.8362 56.6109 55.0889 56.7364 55.468 56.7364C55.847 56.7364 56.0997 56.6109 56.3524 56.4854C56.6051 56.3598 56.8578 56.1088 56.9842 55.8577C57.1106 55.6067 57.2369 55.3557 57.3633 54.9791L58.1214 51.4644H58.7531L57.7423 57.2385H57.1106L57.3633 56.1088C57.1106 56.4854 56.8579 56.7364 56.4788 56.9875C56.0998 57.2385 55.7207 57.364 55.3416 57.364C54.9626 57.364 54.5835 57.2385 54.3308 57.113C54.0781 56.8619 53.9518 56.6109 53.8254 56.3598C53.6991 55.9833 53.6991 55.7322 53.8254 55.2301L54.4572 51.4644H55.0889L54.4572 55.1046C54.4572 55.3557 54.4572 55.6067 54.4572 55.8577ZM62.2909 48.4519L60.6484 51.3389H60.143L61.5328 48.4519H62.2909ZM62.5436 57.2385H61.9119L62.9227 51.4644H63.5544L62.5436 57.2385ZM64.9443 51.9665C64.818 51.9665 64.6916 51.841 64.5652 51.841C64.3125 51.841 64.0598 51.9665 63.8071 52.0921C63.5544 52.2176 63.4281 52.4686 63.3017 52.7197C63.1754 52.9707 63.049 53.2218 63.049 53.5983H62.7963C62.9227 53.2218 63.049 52.8452 63.1754 52.4686C63.3017 52.0921 63.5544 51.841 63.8071 51.59C64.0598 51.3389 64.4389 51.2134 64.818 51.2134C64.9443 51.2134 65.197 51.2134 65.3234 51.3389C65.4497 51.4644 65.5761 51.4644 65.7024 51.59L65.197 52.0921C65.197 52.0921 65.0707 52.0921 64.9443 51.9665ZM66.8396 56.9875C66.4605 56.7364 66.2078 56.4854 66.0815 56.1088C65.8288 55.7322 65.7024 55.2301 65.7024 54.728C65.7024 54.2259 65.8288 53.8494 65.9551 53.4728C66.0815 53.0962 66.3342 52.7197 66.5869 52.3431C66.8396 51.9665 67.2186 51.7155 67.5977 51.59C67.9767 51.4644 68.3558 51.3389 68.8612 51.3389C69.3666 51.3389 69.7456 51.4644 69.9983 51.59C70.3774 51.841 70.6301 52.0921 70.7564 52.4686C71.0091 52.8452 71.0091 53.2218 71.0091 53.7239C71.0091 53.8494 71.0091 53.9749 71.0091 54.1004C71.0091 54.2259 71.0091 54.3515 70.8828 54.477H65.9551V53.9749H70.3774L70.1247 54.3515C70.1247 54.2259 70.251 54.2259 70.251 54.1004C70.251 53.9749 70.251 53.8494 70.251 53.7239C70.251 53.3473 70.1247 53.0962 69.9983 52.8452C69.872 52.5941 69.6193 52.3431 69.4929 52.2176C69.2402 52.0921 68.9875 51.9665 68.6085 51.9665C68.2294 51.9665 67.9767 52.0921 67.5977 52.2176C67.345 52.3431 66.9659 52.5941 66.8396 52.8452C66.5869 53.0962 66.4605 53.3473 66.3342 53.7239C66.2078 54.1004 66.0815 54.3515 66.0815 54.728C66.0815 55.1046 66.2078 55.4812 66.3342 55.8577C66.4605 56.2343 66.7132 56.3598 66.9659 56.6109C67.2186 56.7364 67.5977 56.8619 67.9767 56.8619C68.4821 56.8619 68.8612 56.7364 69.2402 56.4854C69.6193 56.2343 69.872 55.9833 70.1247 55.6067L70.6301 55.9833C70.251 56.4854 69.872 56.7364 69.4929 57.113C68.9875 57.364 68.4821 57.4895 67.9767 57.4895C67.5977 57.364 67.0923 57.2385 66.8396 56.9875ZM76.4422 52.8452C76.6949 52.3431 77.074 51.9665 77.5794 51.7155C78.0848 51.4644 78.5902 51.3389 79.0956 51.3389C79.4746 51.3389 79.8537 51.4644 80.1064 51.59C80.3591 51.7155 80.6118 51.9665 80.7382 52.3431C80.8645 52.5941 80.9909 52.9707 80.9909 53.3473C80.9909 53.7239 80.9909 54.1004 80.9909 54.477C80.9909 54.8536 80.8645 55.2301 80.6118 55.6067C80.4855 55.9833 80.2327 56.2343 79.98 56.6109C79.7273 56.8619 79.4746 57.113 79.0956 57.2385C78.7165 57.364 78.4638 57.4895 78.0848 57.4895C77.5794 57.4895 77.074 57.364 76.6949 57.113C76.3159 56.8619 76.0632 56.4854 75.9368 55.9833C75.8105 55.3556 75.8105 54.8536 75.8105 54.3515C75.9368 53.7239 76.0632 53.2218 76.4422 52.8452ZM76.5686 55.4812C76.6949 55.8577 76.8213 56.1088 77.2003 56.3598C77.453 56.6109 77.8321 56.7364 78.2111 56.7364C78.4638 56.7364 78.8429 56.6109 79.0956 56.4854C79.3483 56.3598 79.601 56.2343 79.8537 55.9833C80.1064 55.7322 80.2327 55.4812 80.3591 55.2301C80.4855 54.9791 80.6118 54.6025 80.6118 54.3515C80.6118 54.1004 80.6118 53.7239 80.6118 53.4728C80.6118 53.2218 80.4855 52.9707 80.3591 52.7197C80.2327 52.4686 80.1064 52.3431 79.8537 52.2176C79.601 52.0921 79.3483 51.9665 79.0956 51.9665C78.7165 51.9665 78.2111 52.0921 77.8321 52.3431C77.453 52.5941 77.2003 52.8452 76.9476 53.2218C76.6949 53.5983 76.5686 53.9749 76.4422 54.477C76.4422 54.728 76.4422 55.1046 76.5686 55.4812ZM82.5071 47.4477L80.8645 57.2385H80.2327L81.8753 47.4477H82.5071ZM84.5287 51.4644L83.5179 57.2385H82.8861L83.8969 51.4644H84.5287ZM84.276 48.4519C84.4023 48.3264 84.5287 48.3264 84.655 48.3264C84.7814 48.3264 84.9077 48.3264 85.0341 48.4519C85.1604 48.5774 85.1604 48.7029 85.1604 48.8285C85.1604 48.954 85.1604 49.0795 85.0341 49.205C84.9077 49.3305 84.7814 49.3305 84.655 49.3305C84.5287 49.3305 84.4023 49.3305 84.276 49.205C84.1496 49.0795 84.1496 48.954 84.1496 48.8285C84.1496 48.7029 84.1496 48.5774 84.276 48.4519ZM86.4239 51.4644L87.5611 56.1088L90.2145 51.4644H90.9726L87.4347 57.6151L85.6658 51.4644H86.4239ZM92.6151 51.4644L91.6043 57.2385H90.9726L91.9834 51.4644H92.6151ZM92.4888 48.4519C92.6151 48.3264 92.7415 48.3264 92.8678 48.3264C92.9942 48.3264 93.1205 48.3264 93.2469 48.4519C93.3732 48.5774 93.3732 48.7029 93.3732 48.8285C93.3732 48.954 93.3732 49.0795 93.2469 49.205C93.1205 49.3305 92.9942 49.3305 92.8678 49.3305C92.7415 49.3305 92.6151 49.3305 92.4888 49.205C92.3624 49.0795 92.3624 48.954 92.3624 48.8285C92.3624 48.7029 92.3624 48.5774 92.4888 48.4519ZM98.0482 52.7197C98.0482 52.4686 97.9219 52.3431 97.7955 52.0921C97.6692 51.9665 97.4165 51.841 97.0374 51.841C96.6584 51.841 96.4056 51.9665 96.1529 52.0921C95.9002 52.2176 95.6475 52.4686 95.5212 52.7197C95.3948 52.9707 95.2685 53.2218 95.1421 53.5983L94.5104 57.2385H93.8786L94.7631 51.4644H95.3948L95.1421 52.5941C95.3948 52.2176 95.6475 51.9665 95.9002 51.7155C96.2793 51.4644 96.6584 51.3389 97.0374 51.3389C97.4165 51.3389 97.7955 51.4644 98.0482 51.59C98.3009 51.841 98.4273 52.0921 98.5536 52.3431C98.68 52.7197 98.68 52.9707 98.5536 53.3473L97.9219 57.113H97.2901L97.9219 53.3473C98.0482 53.2218 98.0482 52.9707 98.0482 52.7197ZM101.081 56.9875C100.702 56.7364 100.449 56.4854 100.323 56.1088C100.07 55.7322 100.07 55.2301 100.07 54.728C100.07 54.2259 100.196 53.8494 100.323 53.4728C100.449 53.0962 100.702 52.7197 100.954 52.3431C101.207 51.9665 101.586 51.7155 101.965 51.59C102.344 51.3389 102.723 51.3389 103.229 51.3389C103.734 51.3389 104.113 51.4644 104.366 51.59C104.745 51.841 104.997 52.0921 105.124 52.4686C105.377 52.8452 105.377 53.2218 105.377 53.7239C105.377 53.8494 105.377 53.9749 105.377 54.1004C105.377 54.2259 105.377 54.3515 105.25 54.477H100.323V53.9749H104.871L104.618 54.3515C104.618 54.2259 104.745 54.2259 104.745 54.1004C104.745 53.9749 104.745 53.8494 104.745 53.7239C104.745 53.3473 104.618 53.0962 104.492 52.8452C104.366 52.5941 104.113 52.3431 103.987 52.2176C103.734 52.0921 103.481 51.9665 103.102 51.9665C102.723 51.9665 102.47 52.0921 102.091 52.2176C101.839 52.3431 101.46 52.5941 101.333 52.8452C101.081 53.0962 100.954 53.3473 100.828 53.7239C100.702 54.1004 100.575 54.3515 100.575 54.728C100.575 55.1046 100.702 55.4812 100.828 55.8577C100.954 56.1088 101.207 56.3598 101.46 56.6109C101.712 56.7364 102.091 56.8619 102.47 56.8619C102.976 56.8619 103.355 56.7364 103.734 56.4854C104.113 56.2343 104.366 55.9833 104.618 55.6067L105.124 55.9833C104.745 56.4854 104.366 56.7364 103.987 57.113C103.481 57.364 102.976 57.4895 102.47 57.4895C101.839 57.364 101.46 57.2385 101.081 56.9875Z" fill="white"/>
</svg>
