<svg width="249" height="19" viewBox="0 0 249 19" fill="none" xmlns="http://www.w3.org/2000/svg">
<path d="M102.367 0.979735H101.177L93.6711 18.0496H96.9143L98.2612 14.8944H105.336L106.657 18.0496H110.044L102.367 0.979735ZM104.277 12.0956H99.3727L101.792 6.76212L104.277 12.0956ZM127.88 12.5579C129.855 11.5018 130.967 9.61392 130.967 7.264C130.967 3.30346 128.063 0.84793 123.382 0.84793H118.949V17.7462H122.087V13.6405H123.382C123.866 13.6405 124.376 13.6141 124.846 13.548L128.011 17.7462H131.83L127.88 12.5579ZM122.087 3.68632H123.277C126.246 3.68632 127.763 4.88768 127.763 7.264C127.763 9.65352 126.298 10.8153 123.277 10.8153H122.087V3.68632ZM136.302 0.83473V17.733H133.137V0.83473H136.302ZM168.524 14.8946V17.733H155.054V16.5713L163.738 3.67311H156.375V0.821527H168.485V1.98328L159.815 14.8946H168.524ZM200.994 0.83473V17.9046H199.713L189.761 6.93395V17.7462H186.714V0.676308H187.996L198.091 11.6602V0.83473H200.994ZM212.424 0.663105C207.441 0.663105 203.688 4.37281 203.688 9.29707C203.688 14.2213 207.441 17.931 212.424 17.931C217.419 17.931 221.172 14.2213 221.172 9.29707C221.185 4.37281 217.419 0.663105 212.424 0.663105ZM212.424 15.053C209.154 15.053 206.8 12.6371 206.8 9.29707C206.8 5.95702 209.167 3.52789 212.424 3.52789C215.693 3.52789 218.073 5.94382 218.073 9.29707C218.086 12.6371 215.706 15.053 212.424 15.053ZM237.479 0.83473L231.83 13.6009L230.274 10.2344L234.184 0.821527H237.479V0.83473ZM230.902 15.7395L229.947 17.9046H228.77L221.12 0.83473H224.546L230.902 15.7395ZM22.898 0.847718H21.721L14.2148 17.9176H17.4579L18.8048 14.7624H25.8795L27.2003 17.9176H30.5873L22.898 0.847718ZM24.8072 11.9504L19.9033 11.9636L22.3357 6.6301L24.8072 11.9504ZM42.7228 1.00614V3.85772H37.6097V17.9176H34.4712V3.85772H29.3581V1.00614H42.7228ZM56.4145 15.066V17.9176H44.5667V1.00614H56.0745V3.85772H47.7052V8.39914H55.1722V11.2243H47.7052V15.066H56.4145ZM67.177 12.7293C69.1516 11.6732 70.2632 9.78533 70.2632 7.43541C70.2632 3.47487 67.347 1.00614 62.6654 1.00614H58.2322V17.9176H61.3707V13.8119H62.6654C63.1623 13.8119 63.6592 13.7723 64.13 13.7195L67.2947 17.9176H71.1132L67.177 12.7293ZM61.3838 3.85772H62.5869C65.5554 3.85772 67.0593 5.05909 67.0593 7.43541C67.0593 9.82493 65.5946 10.9867 62.5869 10.9867H61.3838V3.85772ZM75.9125 1.00614V17.9176H72.7478V1.00614H75.9125ZM92.285 1.00614V18.076H91.0034L81.0518 7.09216V17.9176H78.0048V0.847718H79.2864L89.2642 11.8448V1.00614H92.285ZM13.9271 17.9176H9.93858L4.49852 11.5148L0 17.1123V1.00614H3.1385V8.57076L9.46781 1.00614H13.234L6.49931 9.17804L13.9271 17.9176ZM146.149 0.702711H144.972L137.466 17.7726H140.709L142.056 14.6306L149.131 14.6174L150.451 17.7726H153.838L146.149 0.702711ZM148.045 11.8054H143.141L145.574 6.47189L148.045 11.8054ZM178.423 0.649902H177.246L169.727 17.7198H172.983L174.33 14.5646H181.405L182.726 17.7198H186.099L178.423 0.649902ZM180.332 11.7658H175.429L177.848 6.43229L180.332 11.7658ZM241.324 0.83473H240.147L232.641 17.9046H235.884L237.231 14.7626L244.292 14.7494L245.613 17.9046H249L241.324 0.83473ZM243.233 11.9506H238.329L240.749 6.61711L243.233 11.9506Z" fill="#0B2949"/>
</svg>
