<svg width="60" height="38" viewBox="0 0 60 38" fill="none" xmlns="http://www.w3.org/2000/svg">
<g clip-path="url(#clip0_228_582)">
<path d="M11.1063 14.8047L9.21094 17.38H19.5408C20.0631 17.38 20.0566 17.5767 19.8013 17.9245C19.5421 18.2762 19.1083 18.8845 18.8439 19.2427C18.7097 19.4238 18.4674 19.7534 19.2698 19.7534H23.4942L24.746 18.0521C25.5224 16.9983 24.8138 14.806 22.0379 14.806L11.1063 14.8047Z" fill="#D80613"/>
<path d="M8.44407 23.1951L12.2517 18.021H16.9763C17.4987 18.021 17.4922 18.219 17.2369 18.5655L16.2729 19.8785C16.1388 20.0596 15.8965 20.3892 16.6989 20.3892H23.0271C22.5021 21.1109 20.7931 23.1951 17.7293 23.1951H8.44407ZM30.2476 20.3879L28.1829 23.1951H22.7366L24.8013 20.3879H30.2476ZM38.5897 19.7522H25.2702L28.9124 14.8047H34.3562L32.2693 17.6419H34.6987L36.7882 14.8047H42.2319L38.5897 19.7522ZM38.1221 20.3879L36.0574 23.1951H30.6137L32.6784 20.3879H38.1221ZM0.673828 21.4951H8.69548L8.25779 22.0905H0.673828V21.4951ZM0.673828 20.3879H9.51093L9.07194 20.9832H0.673828V20.3879ZM0.673828 22.6024H7.88133L7.44494 23.1951H0.673828V22.6024ZM59.9999 22.0905H52.0069L52.4459 21.4951H59.9999V22.0905ZM59.9999 23.1951H51.1954L51.6304 22.6024H59.9999V23.1951ZM53.26 20.3879H59.9999V20.9845H52.8224L53.26 20.3879ZM49.7716 14.8047L46.1294 19.7522H40.36L44.0048 14.8047H49.7716ZM39.8937 20.3879C39.8937 20.3879 39.4964 20.9324 39.3023 21.1929C38.6197 22.1178 39.2228 23.1938 41.4542 23.1938H50.1975L52.2622 20.3879H39.8937Z" fill="#D80613"/>
</g>
<defs>
<clipPath id="clip0_228_582">
<rect width="59.326" height="37.85" fill="white" transform="translate(0.673828 0.0749512)"/>
</clipPath>
</defs>
</svg>
