<svg width="24" height="24" viewBox="0 0 24 24" fill="none" xmlns="http://www.w3.org/2000/svg">
<path d="M16.0419 2H7.95811C4.67279 2 2 4.67279 2 7.95811V16.0419C2 19.3272 4.67279 22 7.95811 22H16.0419C19.3272 22 22 19.3272 22 16.0419V7.95811C22 4.67279 19.3272 2 16.0419 2ZM19.988 16.0419C19.988 18.2213 18.2213 19.988 16.0419 19.988H7.95811C5.77875 19.988 4.012 18.2213 4.012 16.0419V7.95811C4.012 5.77871 5.77875 4.012 7.95811 4.012H16.0419C18.2213 4.012 19.988 5.77871 19.988 7.95811V16.0419Z" fill="white"/>
<path d="M11.9996 6.82764C9.14738 6.82764 6.8269 9.14811 6.8269 12.0003C6.8269 14.8525 9.14738 17.173 11.9996 17.173C14.8519 17.173 17.1723 14.8525 17.1723 12.0003C17.1723 9.14807 14.8519 6.82764 11.9996 6.82764ZM11.9996 15.1611C10.254 15.1611 8.8389 13.746 8.8389 12.0003C8.8389 10.2547 10.254 8.83964 11.9996 8.83964C13.7452 8.83964 15.1603 10.2547 15.1603 12.0003C15.1603 13.7459 13.7452 15.1611 11.9996 15.1611Z" fill="white"/>
<path d="M17.1824 8.10593C17.8669 8.10593 18.4218 7.55099 18.4218 6.86644C18.4218 6.18189 17.8669 5.62695 17.1824 5.62695C16.4978 5.62695 15.9429 6.18189 15.9429 6.86644C15.9429 7.55099 16.4978 8.10593 17.1824 8.10593Z" fill="white"/>
</svg>
