<svg width="63" height="21" viewBox="0 0 63 21" fill="none" xmlns="http://www.w3.org/2000/svg">
<path d="M34.6974 10.5H37.0467L33.7946 14.4471L37.6622 18.9006H35.0359L31.5479 14.8294V18.9006H29.4448V10.5H31.5479V14.3748L34.6974 10.5Z" fill="white"/>
<path d="M43.2629 18.9006H41.0864L44.7554 10.5H46.9733L50.6734 18.9006H48.5073L45.8747 12.564L45.0456 14.5764L43.2629 18.9006Z" fill="white"/>
<path d="M61.0178 10.5H62.9986V18.9006H61.2139L56.7522 13.6825V18.9006H54.7812V10.5H56.5365L61.0178 15.7387V10.5Z" fill="white"/>
<path d="M16.5625 21H15.7348H6.47951H5.93607H0L11.1615 0L22.3815 21H16.5625ZM8.76197 16.094H13.4523L11.1113 11.0427L8.76197 16.094Z" fill="white"/>
<path d="M33.7295 6L33.723 3.28615L32.3919 5.52185H31.9202L30.5956 3.34431V6H29.6135V1.47692H30.4793L32.1722 4.28769L33.8393 1.47692H34.6987L34.7116 6H33.7295ZM39.0866 5.03077H36.9866L36.586 6H35.5133L37.5293 1.47692H38.5632L40.5857 6H39.4872L39.0866 5.03077ZM38.757 4.236L38.0398 2.50431L37.3226 4.236H38.757ZM41.378 1.47692H43.4328C43.9238 1.47692 44.3568 1.57169 44.7315 1.76123C45.1106 1.94646 45.4035 2.20923 45.6103 2.54954C45.8214 2.88985 45.9269 3.28615 45.9269 3.73846C45.9269 4.19077 45.8214 4.58708 45.6103 4.92738C45.4035 5.26769 45.1106 5.53262 44.7315 5.72215C44.3568 5.90738 43.9238 6 43.4328 6H41.378V1.47692ZM43.3811 5.14062C43.8334 5.14062 44.1931 5.01569 44.4602 4.76585C44.7315 4.51169 44.8672 4.16923 44.8672 3.73846C44.8672 3.30769 44.7315 2.96738 44.4602 2.71754C44.1931 2.46338 43.8334 2.33631 43.3811 2.33631H42.4248V5.14062H43.3811ZM50.5416 5.16V6H47.0394V1.47692H50.4576V2.31692H48.0797V3.29908H50.1797V4.11323H48.0797V5.16H50.5416ZM57.1718 3.648C57.4302 3.72985 57.6327 3.86769 57.7791 4.06154C57.9256 4.25108 57.9988 4.48585 57.9988 4.76585C57.9988 5.16215 57.8438 5.468 57.5336 5.68338C57.2278 5.89446 56.7798 6 56.1896 6H53.8505V1.47692H56.0604C56.6118 1.47692 57.0339 1.58246 57.3268 1.79354C57.6241 2.00462 57.7727 2.29108 57.7727 2.65292C57.7727 2.87262 57.7188 3.06862 57.6111 3.24092C57.5078 3.41323 57.3613 3.54892 57.1718 3.648ZM54.8908 2.26523V3.33138H55.9311C56.1896 3.33138 56.3856 3.28615 56.5191 3.19569C56.6527 3.10523 56.7195 2.97169 56.7195 2.79508C56.7195 2.61846 56.6527 2.48708 56.5191 2.40092C56.3856 2.31046 56.1896 2.26523 55.9311 2.26523H54.8908ZM56.1121 5.21169C56.3878 5.21169 56.5945 5.16646 56.7324 5.076C56.8745 4.98554 56.9456 4.84554 56.9456 4.656C56.9456 4.28123 56.6678 4.09385 56.1121 4.09385H54.8908V5.21169H56.1121ZM61.1908 4.39754V6H60.1441V4.38462L58.393 1.47692H59.5044L60.7127 3.48646L61.921 1.47692H62.9484L61.1908 4.39754Z" fill="white"/>
</svg>
