<svg width="51" height="35" viewBox="0 0 51 35" fill="none" xmlns="http://www.w3.org/2000/svg">
<g clip-path="url(#clip0_502_1916)">
<path d="M29.542 7.4715C23.8036 7.4715 19.2273 11.9408 19.2273 17.4914C19.2273 23.0421 23.8762 27.5114 29.542 27.5114C35.2078 27.5114 39.8567 23.0421 39.8567 17.4914C39.9294 11.9408 35.2078 7.4715 29.542 7.4715ZM29.542 21.1678C27.4355 21.1678 25.6195 19.5098 25.6195 17.4914C25.6195 15.473 27.3629 13.8151 29.542 13.8151C31.7212 13.8151 33.4645 15.473 33.4645 17.4914C33.3192 19.5098 31.7212 21.1678 29.542 21.1678ZM19.1547 10.427V25.0605H15.5228L10.8013 10.427H19.1547Z" fill="white"/>
</g>
<defs>
<clipPath id="clip0_502_1916">
<rect width="29.2264" height="20.3537" fill="white" transform="translate(10.8013 7.31458)"/>
</clipPath>
</defs>
</svg>
