<svg width="52" height="35" viewBox="0 0 52 35" fill="none" xmlns="http://www.w3.org/2000/svg">
<path fill-rule="evenodd" clip-rule="evenodd" d="M32.9982 27.752C38.4799 27.752 42.9237 23.2449 42.9237 17.6851C42.9237 12.1254 38.4799 7.61829 32.9982 7.61829C30.5414 7.61829 28.293 8.52366 26.5597 10.0234C24.8266 8.52391 22.5784 7.61871 20.1218 7.61871C14.6401 7.61871 10.1963 12.1258 10.1963 17.6856C10.1963 23.2453 14.6401 27.7524 20.1218 27.7524C22.5786 27.7524 24.827 26.847 26.5602 25.3473C28.2934 26.8468 30.5416 27.752 32.9982 27.752Z" fill="white"/>
<path fill-rule="evenodd" clip-rule="evenodd" d="M26.5601 25.3472C28.6941 23.5007 30.0473 20.7532 30.0473 17.6852C30.0473 14.6172 28.6941 11.8697 26.5601 10.0232C28.2933 8.52363 30.5415 7.61835 32.9983 7.61835C38.48 7.61835 42.9237 12.1254 42.9237 17.6852C42.9237 23.245 38.48 27.7521 32.9983 27.7521C30.5415 27.7521 28.2933 26.8468 26.5601 25.3472Z" fill="#E8E8E8"/>
<path fill-rule="evenodd" clip-rule="evenodd" d="M26.56 25.3471C28.6941 23.5007 30.0473 20.7532 30.0473 17.6852C30.0473 14.6171 28.6941 11.8696 26.56 10.0232C24.426 11.8696 23.0728 14.6171 23.0728 17.6852C23.0728 20.7532 24.426 23.5007 26.56 25.3471Z" fill="#C9C9C9"/>
</svg>
