<svg width="52" height="35" viewBox="0 0 52 35" fill="none" xmlns="http://www.w3.org/2000/svg">
<path fill-rule="evenodd" clip-rule="evenodd" d="M16.3641 23.71H13.28L10.9673 14.864C10.8575 14.457 10.6244 14.0973 10.2816 13.9278C9.42595 13.5017 8.48313 13.1626 7.45459 12.9915V12.651H12.4228C13.1085 12.651 13.6228 13.1626 13.7085 13.7567L14.9085 20.1377L17.9911 12.651H20.9895L16.3641 23.71ZM22.7039 23.71H19.7912L22.1896 12.651H25.1023L22.7039 23.71ZM28.8706 15.7146C28.9563 15.119 29.4705 14.7784 30.0705 14.7784C31.0134 14.6929 32.0404 14.8639 32.8975 15.2885L33.4118 12.9075C32.5546 12.5669 31.6118 12.3959 30.7562 12.3959C27.9292 12.3959 25.8722 13.9277 25.8722 16.0537C25.8722 17.6711 27.3293 18.5203 28.3578 19.0319C29.4705 19.542 29.8991 19.8826 29.8134 20.3927C29.8134 21.1579 28.9563 21.4985 28.1007 21.4985C27.0721 21.4985 26.0436 21.2434 25.1023 20.8173L24.588 23.1999C25.6166 23.6245 26.7293 23.7955 27.7578 23.7955C30.9276 23.8795 32.8975 22.3492 32.8975 20.0521C32.8975 17.1595 28.8706 16.9899 28.8706 15.7146ZM43.0906 23.71L40.7779 12.651H38.2938C37.7795 12.651 37.2652 12.9915 37.0938 13.5017L32.8112 23.71H35.8096L36.4081 22.0941H40.0922L40.435 23.71H43.0906ZM38.7231 15.6291L39.5787 19.797H37.1803L38.7231 15.6291Z" fill="white"/>
</svg>
