<svg width="24" height="24" viewBox="0 0 24 24" fill="none" xmlns="http://www.w3.org/2000/svg">
<path d="M12.001 5.52898C14.35 3.41998 17.98 3.48998 20.243 5.75698C22.505 8.02498 22.583 11.637 20.479 13.993L11.999 22.485L3.52101 13.993C1.41701 11.637 1.49601 8.01898 3.75701 5.75698C6.02201 3.49298 9.64501 3.41698 12.001 5.52898ZM18.827 7.16998C17.327 5.66798 14.907 5.60698 13.337 7.01698L12.002 8.21498L10.666 7.01798C9.09101 5.60598 6.67601 5.66798 5.17201 7.17198C3.68201 8.66198 3.60701 11.047 4.98001 12.623L12 19.654L19.02 12.624C20.394 11.047 20.319 8.66498 18.827 7.16998Z" fill="white"/>
<path d="M18.827 7.16998C17.327 5.66798 14.907 5.60698 13.337 7.01698L12.002 8.21498L10.666 7.01798C9.09101 5.60598 6.67601 5.66798 5.17201 7.17198C3.68201 8.66198 3.60701 11.047 4.98001 12.623L12 19.654L19.02 12.624C20.394 11.047 20.319 8.66498 18.827 7.16998Z" fill="white"/>
</svg>
